<?xml version="1.0" encoding="UTF-8" standalone="no"?>
<!-- Created with Inkscape (http://www.inkscape.org/) -->

<svg
   xmlns:dc="http://purl.org/dc/elements/1.1/"
   xmlns:cc="http://creativecommons.org/ns#"
   xmlns:rdf="http://www.w3.org/1999/02/22-rdf-syntax-ns#"
   xmlns:svg="http://www.w3.org/2000/svg"
   xmlns="http://www.w3.org/2000/svg"
   xmlns:sodipodi="http://sodipodi.sourceforge.net/DTD/sodipodi-0.dtd"
   xmlns:inkscape="http://www.inkscape.org/namespaces/inkscape"
   width="350.44131"
   height="102.48076"
   id="svg2"
   version="1.1"
   inkscape:version="0.47 r22583"
   sodipodi:docname="fenix_logo.svg"
   inkscape:export-filename="/Users/petter/Documents/Projects/SmallerProjectsWorkspace/Fenix/src/main/webapp/VAADIN/themes/Fenix/icons/logo.png"
   inkscape:export-xdpi="43.910683"
   inkscape:export-ydpi="43.910683">
  <defs
     id="defs4">
    <inkscape:perspective
       sodipodi:type="inkscape:persp3d"
       inkscape:vp_x="0 : 526.18109 : 1"
       inkscape:vp_y="0 : 1000 : 0"
       inkscape:vp_z="744.09448 : 526.18109 : 1"
       inkscape:persp3d-origin="372.04724 : 350.78739 : 1"
       id="perspective10" />
    <inkscape:perspective
       id="perspective3622"
       inkscape:persp3d-origin="0.5 : 0.33333333 : 1"
       inkscape:vp_z="1 : 0.5 : 1"
       inkscape:vp_y="0 : 1000 : 0"
       inkscape:vp_x="0 : 0.5 : 1"
       sodipodi:type="inkscape:persp3d" />
    <inkscape:perspective
       id="perspective3656"
       inkscape:persp3d-origin="0.5 : 0.33333333 : 1"
       inkscape:vp_z="1 : 0.5 : 1"
       inkscape:vp_y="0 : 1000 : 0"
       inkscape:vp_x="0 : 0.5 : 1"
       sodipodi:type="inkscape:persp3d" />
    <inkscape:perspective
       id="perspective3684"
       inkscape:persp3d-origin="0.5 : 0.33333333 : 1"
       inkscape:vp_z="1 : 0.5 : 1"
       inkscape:vp_y="0 : 1000 : 0"
       inkscape:vp_x="0 : 0.5 : 1"
       sodipodi:type="inkscape:persp3d" />
  </defs>
  <sodipodi:namedview
     id="base"
     pagecolor="#ffffff"
     bordercolor="#666666"
     borderopacity="1.0"
     inkscape:pageopacity="0.0"
     inkscape:pageshadow="2"
     inkscape:zoom="0.98994949"
     inkscape:cx="245.40504"
     inkscape:cy="23.635709"
     inkscape:document-units="px"
     inkscape:current-layer="layer1"
     showgrid="true"
     inkscape:snap-global="false"
     showguides="true"
     inkscape:guide-bbox="true"
     inkscape:window-width="1440"
     inkscape:window-height="852"
     inkscape:window-x="0"
     inkscape:window-y="0"
     inkscape:window-maximized="0">
    <inkscape:grid
       type="xygrid"
       id="grid3590"
       empspacing="5"
       visible="true"
       enabled="true"
       snapvisiblegridlinesonly="true" />
  </sodipodi:namedview>
  <metadata
     id="metadata7">
    <rdf:RDF>
      <cc:Work
         rdf:about="">
        <dc:format>image/svg+xml</dc:format>
        <dc:type
           rdf:resource="http://purl.org/dc/dcmitype/StillImage" />
        <dc:title></dc:title>
      </cc:Work>
    </rdf:RDF>
  </metadata>
  <g
     inkscape:label="Layer 1"
     inkscape:groupmode="layer"
     id="layer1"
     transform="translate(-39.485498,-349.03558)">
    <g
       id="g3741"
       transform="matrix(0.30050453,0,0,0.30050453,27.619927,244.14881)">
      <path
         transform="matrix(1.0588235,0,0,1,-50.756299,348.61647)"
         d="m 425.71428,170.93361 a 170,170 0 1 1 -340.000001,0 170,170 0 1 1 340.000001,0 z"
         sodipodi:ry="170"
         sodipodi:rx="170"
         sodipodi:cy="170.93361"
         sodipodi:cx="255.71428"
         id="path2816"
         style="opacity:0.98999999;fill:#214478;stroke:#000000;stroke-opacity:1"
         sodipodi:type="arc" />
      <path
         d="m 180,549.55008 c 0,0 -20,-40 -60,-40 -20,0 -40,-40 -40,-40 m 0,0 120,-20 m -20,100 c -13.33333,26.66667 -26.66667,53.33333 -40,80 m 0,0 c 2.8748,9.89761 6.92558,20.51181 15.70029,26.62225 6.49556,4.4579 14.96781,1.60828 20.43095,-3.13664 4.55912,-4.03354 9.18792,-9.39448 15.88864,-9.08444 9.82615,0.56513 16.79997,8.84737 22.22672,16.2117 2.11507,3.00124 4.06061,6.12782 5.7534,9.38713 m -20,-220 -20,-20 c -6.50309,-6.50309 4.02754,-18.7207 10,-25.71428 4.29613,-5.03065 17.14286,-10 17.14286,-10 L 220,369.55008 m 40,180 c 0,0 20,-40 60,-40 20,0 40,-40 40,-40 m 0,0 -120,-20 m 20,100 40,80 m 0,0 c 0,0 -11.71573,48.28427 -40,20 -20,-20 -40,20 -40,20 m 20,-220 20,-20 c 6.50309,-6.50309 -4.02754,-18.72069 -10,-25.71428 -4.29613,-5.03065 -17.14286,-10 -17.14286,-10 L 220,369.55009"
         style="fill:none;stroke:#000000;stroke-width:1px;stroke-linecap:butt;stroke-linejoin:miter;stroke-opacity:1"
         id="path3744" />
      <path
         transform="translate(0,308.2677)"
         id="path3733"
         d="m 216.9283,354.41644 c -1.50636,-2.44049 -5.12543,-6.93528 -8.04238,-9.98842 -6.52753,-6.83228 -11.23644,-9.39268 -17.17153,-9.33678 -4.7338,0.0446 -7.4233,1.40058 -14.33362,7.22673 -5.61136,4.73098 -9.82926,6.68018 -14.37905,6.64494 -4.4932,-0.0348 -6.81976,-1.31082 -11.2718,-6.18205 -3.69536,-4.04331 -6.93652,-9.95592 -9.42917,-17.20094 l -1.36184,-3.95827 20.10877,-40.22507 20.10876,-40.22507 -4.70306,-7.05176 c -8.20729,-12.30598 -20.80791,-23.4032 -32.40599,-28.53957 -5.85659,-2.59367 -13.0721,-4.31537 -20.65474,-4.92843 -3.53571,-0.28586 -7.93181,-1.08897 -9.76909,-1.78468 -7.71602,-2.92173 -17.991703,-13.56775 -26.870843,-27.83925 -2.473392,-3.9755 -4.656303,-7.64311 -4.850914,-8.15026 -0.269772,-0.70302 13.695911,-3.26214 58.782787,-10.77155 32.52613,-5.41737 59.36567,-10.21282 59.64562,-10.65694 0.30521,-0.4842 -3.9513,-5.29936 -10.63199,-12.02736 l -11.14099,-11.21988 0.48393,-3.02629 c 0.61825,-3.86634 3.06884,-8.34844 7.83333,-14.32707 5.00435,-6.279611 7.0085,-7.875982 14.66253,-11.679251 l 6.44767,-3.203832 5.79888,-11.061417 c 3.18938,-6.08378 6.07093,-10.893278 6.40345,-10.687774 0.33251,0.205504 3.17842,5.283305 6.32425,11.284003 l 5.71968,10.91036 3.95955,1.64114 c 6.56374,2.720518 11.97132,6.694571 16.27022,11.957031 5.35902,6.56023 8.43193,12.45936 8.43193,16.18699 0,2.79628 -0.42305,3.33747 -10.71428,13.70629 -5.89286,5.93728 -10.71429,11.10644 -10.71429,11.48702 0,0.38058 26.83963,5.16021 59.64362,10.62141 l 59.64362,9.92944 -1.87618,3.27834 c -8.3114,14.52299 -20.67657,28.85282 -28.1128,32.57955 -3.03626,1.52165 -5.84761,2.17544 -12.51375,2.91014 -17.76813,1.9583 -29.33277,7.6126 -42.19457,20.63017 -6.41481,6.49249 -14.58994,17.65375 -14.58994,19.91919 0,0.64513 8.86486,18.90038 19.69969,40.56722 l 19.69967,39.39425 -0.82539,3.28177 c -1.26496,5.0295 -6.21581,14.62176 -9.43333,18.27706 -3.76922,4.28206 -7.72026,6.27869 -12.22383,6.17722 -4.42476,-0.0997 -8.52111,-2.12689 -14.24844,-7.05128 -2.44975,-2.10631 -5.7283,-4.49941 -7.28566,-5.31802 -5.98295,-3.14483 -14.67457,-1.04757 -21.41768,5.16802 -3.54786,3.27029 -10.53336,12.2006 -11.91415,15.23111 -0.46839,1.028 -1.07577,1.86909 -1.34972,1.86909 -0.27396,0 -1.73058,-1.99677 -3.23694,-4.43727 l 0,0 z"
         style="opacity:0.98999999;fill:none;stroke:none" />
      <path
         transform="translate(0,308.2677)"
         id="path3735"
         d="m 216.9283,354.41644 c -1.50636,-2.44049 -5.12543,-6.93528 -8.04238,-9.98842 -6.52753,-6.83228 -11.23644,-9.39268 -17.17153,-9.33678 -4.7338,0.0446 -7.4233,1.40058 -14.33362,7.22673 -5.61136,4.73098 -9.82926,6.68018 -14.37905,6.64494 -4.4932,-0.0348 -6.81976,-1.31082 -11.2718,-6.18205 -3.69536,-4.04331 -6.93652,-9.95592 -9.42917,-17.20094 l -1.36184,-3.95827 20.10877,-40.22507 20.10876,-40.22507 -4.70306,-7.05176 c -8.20729,-12.30598 -20.80791,-23.4032 -32.40599,-28.53957 -5.85659,-2.59367 -13.0721,-4.31537 -20.65474,-4.92843 -3.53571,-0.28586 -7.93181,-1.08897 -9.76909,-1.78468 -7.71602,-2.92173 -17.991703,-13.56775 -26.870843,-27.83925 -2.473392,-3.9755 -4.656303,-7.64311 -4.850914,-8.15026 -0.269772,-0.70302 13.695911,-3.26214 58.782787,-10.77155 32.52613,-5.41737 59.36567,-10.21282 59.64562,-10.65694 0.30521,-0.4842 -3.9513,-5.29936 -10.63199,-12.02736 l -11.14099,-11.21988 0.48393,-3.02629 c 0.61825,-3.86634 3.06884,-8.34844 7.83333,-14.32707 5.00435,-6.279611 7.0085,-7.875982 14.66253,-11.679251 l 6.44767,-3.203832 5.79888,-11.061417 c 3.18938,-6.08378 6.07093,-10.893278 6.40345,-10.687774 0.33251,0.205504 3.17842,5.283305 6.32425,11.284003 l 5.71968,10.91036 3.95955,1.64114 c 6.56374,2.720518 11.97132,6.694571 16.27022,11.957031 5.35902,6.56023 8.43193,12.45936 8.43193,16.18699 0,2.79628 -0.42305,3.33747 -10.71428,13.70629 -5.89286,5.93728 -10.71429,11.10644 -10.71429,11.48702 0,0.38058 26.83963,5.16021 59.64362,10.62141 l 59.64362,9.92944 -1.87618,3.27834 c -8.3114,14.52299 -20.67657,28.85282 -28.1128,32.57955 -3.03626,1.52165 -5.84761,2.17544 -12.51375,2.91014 -17.76813,1.9583 -29.33277,7.6126 -42.19457,20.63017 -6.41481,6.49249 -14.58994,17.65375 -14.58994,19.91919 0,0.64513 8.86486,18.90038 19.69969,40.56722 l 19.69967,39.39425 -0.82539,3.28177 c -1.26496,5.0295 -6.21581,14.62176 -9.43333,18.27706 -3.76922,4.28206 -7.72026,6.27869 -12.22383,6.17722 -4.42476,-0.0997 -8.52111,-2.12689 -14.24844,-7.05128 -2.44975,-2.10631 -5.7283,-4.49941 -7.28566,-5.31802 -5.98295,-3.14483 -14.67457,-1.04757 -21.41768,5.16802 -3.54786,3.27029 -10.53336,12.2006 -11.91415,15.23111 -0.46839,1.028 -1.07577,1.86909 -1.34972,1.86909 -0.27396,0 -1.73058,-1.99677 -3.23694,-4.43727 l 0,0 z"
         style="opacity:0.98999999;fill:#ffffff;fill-opacity:1;stroke:none" />
    </g>
    <text
       xml:space="preserve"
       style="font-size:72px;font-style:normal;font-weight:normal;fill:#000000;fill-opacity:1;stroke:none;font-family:Bitstream Vera Sans"
       x="150.51276"
       y="420.00662"
       id="text3737"><tspan
         sodipodi:role="line"
         id="tspan3739"
         x="150.51276"
         y="420.00662"
         style="font-size:72px;font-style:normal;font-variant:normal;font-weight:bold;font-stretch:normal;font-family:Bitstream Vera Sans;-inkscape-font-specification:Bitstream Vera Sans Bold">FENIX</tspan></text>
    <text
       xml:space="preserve"
       style="font-size:12px;font-style:normal;font-weight:normal;fill:#000000;fill-opacity:1;stroke:none;font-family:Bitstream Vera Sans"
       x="155.65305"
       y="437.37421"
       id="text3777"><tspan
         sodipodi:role="line"
         id="tspan3779"
         x="155.65305"
         y="437.37421"
         style="font-size:15px">Resource Management System</tspan></text>
    <flowRoot
       xml:space="preserve"
       id="flowRoot3783"
       style="font-size:12px;font-style:normal;font-weight:normal;fill:#000000;fill-opacity:1;stroke:none;font-family:Bitstream Vera Sans"
       transform="translate(39.485498,349.03558)"><flowRegion
         id="flowRegion3785"><rect
           id="rect3787"
           width="574.77679"
           height="267.69043"
           x="-106.06602"
           y="-67.224869" /></flowRegion><flowPara
         id="flowPara3789"></flowPara></flowRoot>  </g>
</svg>
